<?xml version="1.0" encoding="utf-8"?><!DOCTYPE svg PUBLIC "-//W3C//DTD SVG 1.1//EN" "http://www.w3.org/Graphics/SVG/1.1/DTD/svg11.dtd"><svg version="1.1" baseProfile="full" xmlns="http://www.w3.org/2000/svg" xmlns:xlink="http://www.w3.org/1999/xlink" xmlns:ev="http://www.w3.org/2001/xml-events"   height="16px"   width="16px" ><path fill="rgb( 90, 147, 0 )" d="M12.886,3.13500000000022 C10.242,0.49099999999999 5.95500000000004,0.49099999999999 3.31100000000004,3.13500000000022 C0.66600000000005,5.78099999999995 0.66600000000005,10.0680000000002 3.30999999999995,12.712 C5.95500000000004,15.357 10.2430000000001,15.3580000000002 12.888,12.7130000000002 C15.532,10.0680000000002 15.5309999999999,5.7800000000002 12.886,3.13500000000022 ZM11.385,5.85399999999981 C11.385,5.85399999999981 7.54499999999996,10.8809999999999 7.54499999999996,10.8809999999999 C7.42200000000003,11.0419999999999 7.23599999999999,11.1370000000002 7.03399999999999,11.1419999999998 C7.03399999999999,11.1419999999998 7.03200000000004,11.1419999999998 7.03200000000004,11.1419999999998 C7.03200000000004,11.1419999999998 7.01800000000003,11.1419999999998 7.01800000000003,11.1419999999998 C6.822,11.1419999999998 6.63699999999994,11.056 6.51199999999994,10.9059999999999 C6.51199999999994,10.9059999999999 4.86699999999996,8.96199999999999 4.86699999999996,8.96199999999999 C4.75300000000004,8.82700000000023 4.69899999999996,8.6550000000002 4.71299999999997,8.47899999999981 C4.72799999999995,8.30200000000013 4.81100000000004,8.14199999999983 4.94500000000005,8.02700000000004 C5.20600000000002,7.80600000000004 5.66099999999994,7.8449999999998 5.88,8.10600000000022 C5.88,8.10600000000022 6.99300000000005,9.42000000000007 6.99300000000005,9.42000000000007 C6.99300000000005,9.42000000000007 10.33,5.04899999999998 10.33,5.04899999999998 C10.538,4.77700000000004 10.987,4.71599999999989 11.26,4.92399999999998 C11.401,5.03099999999995 11.491,5.1869999999999 11.515,5.36299999999983 C11.538,5.53900000000021 11.492,5.71300000000019 11.385,5.85399999999981 Z "/></svg>