<?xml version="1.0" encoding="utf-8"?>
<!-- Generator: Adobe Illustrator 18.1.0, SVG Export Plug-In . SVG Version: 6.00 Build 0)  -->
<!DOCTYPE svg PUBLIC "-//W3C//DTD SVG 1.1//EN" "http://www.w3.org/Graphics/SVG/1.1/DTD/svg11.dtd">
<svg version="1.1" id="Layer_1" xmlns="http://www.w3.org/2000/svg" xmlns:xlink="http://www.w3.org/1999/xlink" x="0px" y="0px"
	 viewBox="0 0 743.2 746.5" enable-background="new 0 0 743.2 746.5" xml:space="preserve">
<circle fill="#57CFF7" cx="386.3" cy="400" r="267"/>
<g>
	<path fill="#242D3C" d="M491.1,585.2H281.5V466.3l66.3-66.3l-66.3-66.3V214.7h209.6v118.9L424.8,400l66.3,66.3V585.2z M321.5,545.2
		h129.6v-62.4l-64.8-64.8l-64.8,64.8V545.2z M321.5,317l64.8,64.8l64.8-64.8v-62.4H321.5V317z"/>
	<g>
		<g>
			<polygon fill="#FFFFFF" points="301.5,325.3 386.3,410.1 471.1,325.3 			"/>
			<rect x="372.2" y="383" fill="#FFFFFF" width="28.3" height="33.9"/>
			<rect x="301.5" y="234.7" fill="#FFFFFF" width="169.6" height="90.7"/>
			<polygon fill="#FFFFFF" points="471.1,474.6 386.3,389.8 301.5,474.6 			"/>
			<rect x="301.5" y="474.6" fill="#FFFFFF" width="169.6" height="90.7"/>
		</g>
	</g>
	<rect x="310" y="534.3" fill="#E64717" width="152.6" height="31"/>
	<rect x="310" y="534.3" fill="#F15424" width="124.4" height="31"/>
	<g>
		<polygon fill="#E64717" points="322,333.8 450.7,333.8 386.3,398.1 		"/>
		<polygon fill="#F15424" points="322,333.8 422.4,333.8 386.3,398.1 		"/>
	</g>
	<circle fill="#F15424" cx="386.3" cy="428.3" r="8.8"/>
	<circle fill="#F15424" cx="386.3" cy="457.8" r="4.4"/>
</g>
<g>
	<path fill="#57CFF7" d="M204.4,694.9c-1.7-1.1-3.4-2.1-5.1-3.2l1.6-2.5c1.7,1.1,3.4,2.1,5,3.2L204.4,694.9z"/>
	<path fill="#57CFF7" d="M385.8,746.5c-4,0-8-0.1-11.9-0.2l0.1-3c3.9,0.1,7.9,0.2,11.8,0.2L385.8,746.5z M397.7,746.3l-0.1-3
		c3.9-0.1,7.9-0.3,11.8-0.6l0.2,3C405.7,745.9,401.7,746.1,397.7,746.3z M361.9,745.6c-4-0.3-8-0.6-11.9-1l0.3-3
		c3.9,0.4,7.9,0.8,11.8,1L361.9,745.6z M421.6,744.7l-0.3-3c3.9-0.4,7.9-0.9,11.8-1.4l0.4,3C429.5,743.8,425.5,744.3,421.6,744.7z
		 M338.2,743.1c-3.9-0.5-7.9-1.2-11.8-1.8l0.5-3c3.9,0.7,7.8,1.3,11.7,1.8L338.2,743.1z M445.2,741.5l-0.5-3
		c3.9-0.7,7.8-1.4,11.6-2.2l0.6,2.9C453.1,740.1,449.1,740.8,445.2,741.5z M314.7,739c-3.9-0.8-7.8-1.7-11.6-2.7l0.7-2.9
		c3.8,0.9,7.7,1.8,11.5,2.6L314.7,739z M468.6,736.6l-0.7-2.9c3.8-0.9,7.7-1.9,11.5-3l0.8,2.9C476.3,734.7,472.4,735.7,468.6,736.6z
		 M291.5,733.3c-3.8-1.1-7.7-2.2-11.4-3.5l0.9-2.9c3.7,1.2,7.5,2.4,11.3,3.4L291.5,733.3z M491.6,730.2l-0.9-2.9
		c3.8-1.2,7.5-2.5,11.2-3.8l1,2.8C499.2,727.7,495.4,729,491.6,730.2z M268.8,726c-3.7-1.3-7.5-2.8-11.2-4.2l1.1-2.8
		c3.7,1.5,7.4,2.9,11.1,4.2L268.8,726z M514.1,722.1l-1.1-2.8c3.7-1.5,7.4-3,11-4.6l1.2,2.7C521.6,719.1,517.8,720.6,514.1,722.1z
		 M246.6,717.1c-3.6-1.6-7.3-3.3-10.8-5l1.3-2.7c3.5,1.7,7.1,3.4,10.7,5L246.6,717.1z M536.1,712.5l-1.3-2.7
		c3.5-1.7,7.1-3.5,10.6-5.3l1.4,2.7C543.2,709,539.6,710.8,536.1,712.5z M225.1,706.7c-3.5-1.8-7-3.8-10.5-5.7l1.5-2.6
		c3.4,2,6.9,3.9,10.4,5.7L225.1,706.7z M557.3,701.4l-1.5-2.6c3.4-1.9,6.8-4,10.2-6l1.6,2.6C564.2,697.4,560.7,699.5,557.3,701.4z
		 M577.6,688.9l-1.7-2.5c3.3-2.2,6.6-4.4,9.8-6.7l1.7,2.4C584.2,684.4,580.9,686.7,577.6,688.9z M597.1,675l-1.8-2.4
		c3.1-2.4,6.2-4.9,9.3-7.4l1.9,2.3C603.4,670.1,600.2,672.6,597.1,675z M615.5,659.8l-2-2.2c2.9-2.6,5.9-5.3,8.7-8l2.1,2.2
		C621.5,654.5,618.5,657.2,615.5,659.8z M632.9,643.4l-2.1-2.1c2.8-2.8,5.5-5.7,8.2-8.6l2.2,2C638.4,637.7,635.7,640.6,632.9,643.4z
		 M649,625.9l-2.3-2c2.6-3,5.1-6,7.6-9.1l2.3,1.9C654.2,619.8,651.6,622.9,649,625.9z M664,607.3l-2.4-1.8c2.3-3.1,4.7-6.4,6.9-9.6
		l2.5,1.7C668.7,600.9,666.3,604.1,664,607.3z M677.6,587.7l-2.5-1.6c2.1-3.3,4.2-6.7,6.2-10l2.6,1.5
		C681.9,581,679.8,584.4,677.6,587.7z M689.8,567.3l-2.6-1.5c1.9-3.4,3.8-6.9,5.5-10.4l2.7,1.4C693.6,560.3,691.8,563.8,689.8,567.3
		z M700.6,546l-2.7-1.3c1.7-3.6,3.3-7.2,4.8-10.8l2.8,1.2C703.9,538.8,702.3,542.4,700.6,546z M709.9,524.1l-2.8-1.1
		c1.4-3.7,2.8-7.4,4.1-11.1l2.8,1C712.7,516.6,711.4,520.4,709.9,524.1z M717.7,501.5l-2.9-0.9c1.2-3.8,2.3-7.6,3.3-11.4l2.9,0.8
		C720,493.9,718.9,497.7,717.7,501.5z M723.9,478.5l-2.9-0.7c0.9-3.8,1.7-7.7,2.5-11.6l2.9,0.6C725.6,470.7,724.8,474.6,723.9,478.5
		z M728.5,455l-3-0.5c0.6-3.9,1.2-7.8,1.7-11.7l3,0.4C729.7,447.1,729.1,451.1,728.5,455z M731.4,431.3l-3-0.3
		c0.4-3.9,0.6-7.9,0.9-11.8l3,0.2C732.1,423.4,731.8,427.4,731.4,431.3z M732.8,407.5l-3-0.1c0.1-2.5,0.1-5,0.1-7.5
		c0-1.5,0-2.9,0-4.4l3,0c0,1.5,0,2.9,0,4.4C732.8,402.5,732.8,405,732.8,407.5z M729.5,383.8c-0.2-3.9-0.4-7.9-0.8-11.8l3-0.2
		c0.3,3.9,0.6,7.9,0.8,11.9L729.5,383.8z M727.5,360.1c-0.5-3.9-1-7.8-1.6-11.7l3-0.4c0.6,3.9,1.1,7.9,1.6,11.8L727.5,360.1z
		 M724,336.7c-0.7-3.9-1.5-7.8-2.4-11.6l2.9-0.7c0.9,3.9,1.7,7.8,2.4,11.7L724,336.7z M718.9,313.6c-1-3.8-2-7.6-3.2-11.4l2.9-0.9
		c1.1,3.8,2.2,7.7,3.2,11.5L718.9,313.6z M712.1,290.9c-1.2-3.7-2.6-7.5-4-11.2l2.8-1.1c1.4,3.7,2.7,7.5,4,11.3L712.1,290.9z
		 M703.9,268.7c-1.5-3.6-3.1-7.3-4.7-10.9l2.7-1.2c1.6,3.6,3.2,7.3,4.8,11L703.9,268.7z"/>
	<path fill="#57CFF7" d="M694,247c-0.9-1.8-1.8-3.6-2.7-5.3l2.7-1.4c0.9,1.8,1.8,3.6,2.7,5.4L694,247z"/>
</g>
<path fill="#57CFF7" d="M274.8,706.6c-39.6-14.4-75.5-36.1-106.9-64.4c-31.2-28.2-56.4-61.6-74.8-99.3l2.7-1.3
	c36.5,74.7,102.1,133.8,180.1,162.2L274.8,706.6z"/>
<path fill="#57CFF7" d="M487.6,112.4c-32.5-11.5-66.6-17.3-101.3-17.3c-25.7,0-51.2,3.2-75.9,9.6l-0.7-2.9c25-6.4,50.8-9.6,76.7-9.6
	c35.1,0,69.5,5.9,102.3,17.4L487.6,112.4z"/>
<g>
	<path fill="#57CFF7" d="M344.6,116.8l-0.4-3c2-0.3,4-0.6,6-0.8l0.4,3C348.5,116.3,346.6,116.5,344.6,116.8z"/>
	<path fill="#57CFF7" d="M109.9,325.8L107,325c1-3.8,2.2-7.7,3.3-11.5l2.9,0.9C112,318.2,110.9,322,109.9,325.8z M117,303.2l-2.8-1
		c1.3-3.7,2.8-7.5,4.3-11.2l2.8,1.1C119.7,295.8,118.3,299.5,117,303.2z M125.9,281.2l-2.7-1.2c1.7-3.6,3.4-7.3,5.2-10.8l2.7,1.4
		C129.3,274,127.5,277.6,125.9,281.2z M136.6,260.1l-2.6-1.5c1.9-3.5,4-6.9,6.1-10.3l2.6,1.6C140.6,253.2,138.6,256.6,136.6,260.1z
		 M149.1,239.9l-2.5-1.7c2.2-3.3,4.6-6.6,6.9-9.8l2.4,1.8C153.6,233.3,151.3,236.6,149.1,239.9z M163.2,220.8l-2.3-1.9
		c2.5-3.1,5.1-6.2,7.7-9.2l2.3,2C168.3,214.6,165.7,217.7,163.2,220.8z M178.9,202.9l-2.2-2.1c2.7-2.9,5.6-5.8,8.4-8.5l2.1,2.2
		C184.4,197.2,181.6,200,178.9,202.9z M195.9,186.3l-2-2.2c3-2.7,6-5.3,9.1-7.8l1.9,2.3C201.9,181.1,198.9,183.7,195.9,186.3z
		 M214.3,171.3l-1.8-2.4c3.2-2.4,6.5-4.8,9.7-7l1.7,2.5C220.7,166.6,217.4,168.9,214.3,171.3z M233.9,157.8l-1.6-2.5
		c3.4-2.1,6.8-4.2,10.3-6.2l1.5,2.6C240.6,153.6,237.2,155.7,233.9,157.8z M254.5,145.9l-1.4-2.7c3.5-1.8,7.2-3.6,10.8-5.3l1.3,2.7
		C261.6,142.3,258,144.1,254.5,145.9z M276,135.8l-1.2-2.8c3.7-1.5,7.4-3,11.2-4.4l1,2.8C283.4,132.8,279.7,134.3,276,135.8z
		 M298.3,127.6l-0.9-2.9c3.8-1.2,7.7-2.4,11.5-3.5l0.8,2.9C305.9,125.2,302.1,126.4,298.3,127.6z M321.3,121.2l-0.7-2.9
		c3.9-0.9,7.8-1.7,11.7-2.5l0.6,2.9C329,119.5,325.1,120.3,321.3,121.2z"/>
	<path fill="#57CFF7" d="M105.8,343.3l-2.9-0.6c0.4-2,0.8-3.9,1.3-5.9l2.9,0.7C106.6,339.4,106.2,341.3,105.8,343.3z"/>
</g>
<path fill="#57CFF7" d="M103.2,134l-2.2-2.1C137.2,93.4,180,63,228.2,41.7C278.1,19.6,331.3,8.5,386.3,8.5
	c50.5,0,99.7,9.5,146.1,28.2l-1.1,2.8c-46.1-18.6-94.9-28-145-28C278,11.5,177.4,55,103.2,134z"/>
<path fill="#57CFF7" d="M681.2,419.5l-3-0.2c0.4-6.6,0.7-13.2,0.7-19.4c0-92.5-42.4-177.6-116.3-233.5l1.8-2.4
	c35.7,27,65.3,62.3,85.5,102c21.2,41.7,32,86.7,32,133.9C681.8,406.2,681.6,412.8,681.2,419.5z"/>
<circle fill="#242D3C" cx="267.5" cy="28.4" r="11.3"/>
<circle fill="#242D3C" cx="647.5" cy="88.6" r="25.7"/>
<circle fill="#D9D8D7" cx="640.2" cy="159.9" r="12.9"/>
<circle fill="#D9D8D7" cx="45.8" cy="585.2" r="23.5"/>
<circle fill="#F15424" cx="26.5" cy="286.3" r="9.6"/>
<circle fill="#F15424" cx="653" cy="618.8" r="26.8"/>
<circle fill="#242D3C" cx="590" cy="637.2" r="8.4"/>
<circle fill="#78DDFF" cx="101.9" cy="501.8" r="12.3"/>
<circle fill="#78DDFF" cx="465.7" cy="105.6" r="29.6"/>
<g>
	<path fill="#78DDFF" d="M288.3,182.4c-8.2,8.2-19.6,13.3-32.2,13.3c-25.2,0-45.6-20.4-45.6-45.6c0-19,11.6-35.3,28.1-42.1
		l17.4,42.1L288.3,182.4z"/>
	<path fill="#242D3C" d="M301.7,150.2h-45.6v-45.6C281.3,104.6,301.7,125,301.7,150.2z"/>
	<path fill="#F15424" d="M301.7,150.2c0,12.6-5.1,24-13.3,32.2l-32.2-32.2H301.7z"/>
	<path fill="#FFFFFF" d="M256.1,104.6v45.6l-17.4-42.1C244.1,105.8,250,104.6,256.1,104.6z"/>
</g>
<g>
	<g>
		<g>
			<g>
				<g>
					<path fill="#242D3C" d="M86.9,213.7c-13.8,0-24.9,11.2-24.9,24.9c0,13.8,11.1,24.9,24.9,24.9c13.8,0,24.9-11.2,24.9-24.9
						C111.8,224.8,100.7,213.7,86.9,213.7z M86.9,244.1c-3.1,0-5.6-2.5-5.6-5.6c0-3.1,2.5-5.6,5.6-5.6c3.1,0,5.6,2.5,5.6,5.6
						C92.5,241.6,90,244.1,86.9,244.1z"/>
				</g>
			</g>
			<g>
				<g>
					<rect x="83.6" y="208.9" fill="#242D3C" width="6.6" height="5.3"/>
					
						<rect x="70.1" y="212.6" transform="matrix(0.866 -0.5001 0.5001 0.866 -97.7733 65.5509)" fill="#242D3C" width="6.6" height="5.3"/>
					
						<rect x="60.2" y="222.4" transform="matrix(0.5 -0.866 0.866 0.5 -163.1546 167.5565)" fill="#242D3C" width="6.6" height="5.3"/>
					<rect x="57.3" y="235.3" fill="#242D3C" width="5.3" height="6.6"/>
					
						<rect x="60.2" y="249.4" transform="matrix(-0.5 -0.866 0.866 -0.5 -123.0159 433.1119)" fill="#242D3C" width="6.6" height="5.3"/>
					
						<rect x="70.1" y="259.3" transform="matrix(-0.866 -0.5001 0.5001 -0.866 5.9826 525.5052)" fill="#242D3C" width="6.6" height="5.3"/>
					<rect x="83.6" y="262.9" fill="#242D3C" width="6.6" height="5.3"/>
					
						<rect x="97.1" y="259.3" transform="matrix(-0.866 0.5001 -0.5001 -0.866 318.3588 438.5796)" fill="#242D3C" width="6.6" height="5.3"/>
					
						<rect x="107" y="249.4" transform="matrix(-0.5001 0.8659 -0.8659 -0.5001 383.7291 282.63)" fill="#242D3C" width="6.6" height="5.3"/>
					<rect x="111.3" y="235.3" fill="#242D3C" width="5.3" height="6.6"/>
					
						<rect x="107" y="222.4" transform="matrix(0.4999 0.8661 -0.8661 0.4999 250.0795 17.0326)" fill="#242D3C" width="6.6" height="5.3"/>
					
						<rect x="97.1" y="212.6" transform="matrix(0.866 0.5001 -0.5001 0.866 121.0674 -21.3728)" fill="#242D3C" width="6.6" height="5.3"/>
				</g>
			</g>
		</g>
	</g>
	<path fill="#D9D8D7" d="M86.9,226.6c-6.6,0-12,5.4-12,12c0,6.6,5.4,12,12,12c6.6,0,12-5.4,12-12C98.9,231.9,93.5,226.6,86.9,226.6z
		 M86.9,244c-3,0-5.4-2.4-5.4-5.4c0-3,2.4-5.4,5.4-5.4c3,0,5.4,2.4,5.4,5.4C92.3,241.5,89.9,244,86.9,244z"/>
</g>
<g>
	<path fill="#242D3C" d="M743.2,337.7c0,34.7-28.1,62.9-62.9,62.9c-34.7,0-62.9-28.2-62.9-62.9c0-34.7,28.2-62.9,62.9-62.9
		C715.1,274.8,743.2,302.9,743.2,337.7z"/>
	<path fill="#DDDCDC" d="M732.1,337.7c0,28.6-23.2,51.8-51.8,51.8c-28.6,0-51.8-23.2-51.8-51.8c0-28.6,23.2-51.8,51.8-51.8
		C708.9,285.9,732.1,309.1,732.1,337.7z"/>
	<path fill="#FFFFFF" d="M729.7,337.7c0,27.3-22.1,49.4-49.4,49.4c-27.3,0-49.4-22.1-49.4-49.4c0-27.3,22.1-49.4,49.4-49.4
		C707.6,288.3,729.7,310.4,729.7,337.7z"/>
	<g>
		<g>
			<path fill="#242D3C" d="M681.6,292.4c0,0.7-0.6,1.3-1.3,1.3c-0.7,0-1.3-0.6-1.3-1.3c0-0.7,0.6-1.3,1.3-1.3
				C681,291.2,681.6,291.7,681.6,292.4z"/>
			<path fill="#242D3C" d="M658.8,297.9c0.4,0.6,0.1,1.4-0.5,1.8c-0.6,0.4-1.4,0.1-1.7-0.5c-0.4-0.6-0.1-1.4,0.5-1.7
				C657.7,297,658.5,297.2,658.8,297.9z"/>
			<path fill="#242D3C" d="M641.8,313.9c0.6,0.4,0.8,1.1,0.5,1.8c-0.4,0.6-1.1,0.8-1.8,0.5c-0.6-0.4-0.8-1.1-0.5-1.7
				C640.4,313.8,641.2,313.6,641.8,313.9z"/>
			<path fill="#242D3C" d="M635.1,336.4c0.7,0,1.3,0.6,1.3,1.3c0,0.7-0.6,1.3-1.3,1.3c-0.7,0-1.3-0.6-1.3-1.3
				C633.8,336.9,634.4,336.4,635.1,336.4z"/>
			<path fill="#242D3C" d="M640.5,359.2c0.6-0.4,1.4-0.1,1.8,0.5c0.4,0.6,0.1,1.4-0.5,1.8c-0.6,0.4-1.4,0.1-1.7-0.5
				C639.7,360.3,639.9,359.5,640.5,359.2z"/>
			<path fill="#242D3C" d="M656.6,376.2c0.4-0.6,1.1-0.8,1.8-0.5c0.6,0.4,0.8,1.1,0.5,1.8c-0.4,0.6-1.1,0.8-1.8,0.5
				C656.5,377.6,656.3,376.8,656.6,376.2z"/>
			<path fill="#242D3C" d="M679.1,382.9c0-0.7,0.6-1.3,1.3-1.3c0.7,0,1.3,0.6,1.3,1.3c0,0.7-0.6,1.3-1.3,1.3
				C679.6,384.2,679.1,383.6,679.1,382.9z"/>
			<path fill="#242D3C" d="M701.8,377.5c-0.4-0.6-0.1-1.4,0.5-1.8c0.6-0.4,1.4-0.1,1.7,0.5c0.4,0.6,0.1,1.4-0.5,1.7
				C703,378.3,702.2,378.1,701.8,377.5z"/>
			<path fill="#242D3C" d="M718.9,361.4c-0.6-0.4-0.8-1.1-0.5-1.8c0.4-0.6,1.1-0.8,1.7-0.5c0.6,0.4,0.8,1.1,0.5,1.7
				C720.3,361.5,719.5,361.7,718.9,361.4z"/>
			<path fill="#242D3C" d="M725.6,338.9c-0.7,0-1.3-0.6-1.3-1.3c0-0.7,0.6-1.3,1.3-1.3c0.7,0,1.3,0.6,1.3,1.3
				C726.8,338.4,726.3,338.9,725.6,338.9z"/>
			<path fill="#242D3C" d="M720.1,316.2c-0.6,0.4-1.4,0.1-1.8-0.5c-0.4-0.6-0.1-1.4,0.5-1.7c0.6-0.4,1.4-0.1,1.7,0.5
				C721,315,720.8,315.8,720.1,316.2z"/>
			<path fill="#242D3C" d="M704.1,299.1c-0.4,0.6-1.1,0.8-1.8,0.5c-0.6-0.4-0.8-1.1-0.5-1.8c0.4-0.6,1.1-0.8,1.7-0.5
				C704.2,297.7,704.4,298.5,704.1,299.1z"/>
		</g>
	</g>
	<g>
		<rect x="678.8" y="337.7" fill="#242D3C" width="3.1" height="25.1"/>
		<rect x="682.9" y="336.6" fill="#242D3C" width="31.1" height="2.1"/>
		<path fill="#242D3C" d="M686.1,337.7c0,3.2-2.6,5.8-5.8,5.8c-3.2,0-5.8-2.6-5.8-5.8c0-3.2,2.6-5.8,5.8-5.8
			C683.5,331.9,686.1,334.5,686.1,337.7z"/>
		<g>
			<g>
				<polygon fill="#F15424" points="686.3,342.7 685.4,343.6 656.1,314.3 657,313.4 				"/>
				<path fill="#F15424" d="M684.2,337.7c0,2.1-1.7,3.9-3.9,3.9c-2.1,0-3.9-1.7-3.9-3.8c0-2.1,1.7-3.9,3.9-3.9
					C682.5,333.8,684.2,335.5,684.2,337.7z"/>
			</g>
		</g>
		<path fill="#242D3C" d="M682.3,337.7c0,1.1-0.9,1.9-1.9,1.9c-1.1,0-1.9-0.9-1.9-1.9c0-1.1,0.9-1.9,1.9-1.9
			C681.4,335.7,682.3,336.6,682.3,337.7z"/>
	</g>
</g>
<g>
	<g>
		<rect x="0" y="323.8" fill="#57CFF7" width="78" height="54.5"/>
		<g>
			<g>
				<g>
					<rect x="9.6" y="358.8" fill="#FFFFFF" width="7.5" height="10"/>
					<rect x="22.5" y="340.7" fill="#FFFFFF" width="7.4" height="28"/>
					<rect x="35.2" y="353.1" fill="#FFFFFF" width="7.5" height="15.6"/>
					<rect x="48.1" y="336" fill="#FFFFFF" width="7.4" height="32.7"/>
					<rect x="60.9" y="333.5" fill="#FFFFFF" width="7.5" height="35.3"/>
				</g>
			</g>
			<g>
				<g>
					<rect x="9.6" y="366.2" fill="#242D3C" width="7.5" height="2.6"/>
					<rect x="22.5" y="361.8" fill="#242D3C" width="7.4" height="6.9"/>
					<rect x="35.2" y="363.7" fill="#242D3C" width="7.5" height="5"/>
					<rect x="48.1" y="358.4" fill="#242D3C" width="7.4" height="10.3"/>
					<rect x="60.9" y="359.9" fill="#242D3C" width="7.5" height="8.8"/>
				</g>
			</g>
		</g>
	</g>
</g>
<g>
	<polygon fill="#E6E5E5" points="394.5,0 394.5,24.9 435.1,24.9 435.1,54.6 462,54.6 476.2,68.8 476.2,54.6 485.1,54.6 485.1,0 	"/>
	<polygon fill="#F15424" points="394.5,54.6 394.5,24.9 374.6,24.9 374.6,66.9 384.9,66.9 384.9,77.5 395.5,66.9 435.1,66.9 
		435.1,54.6 	"/>
	<g>
		<g>
			<g>
				<rect x="400.1" y="31" fill="#242D3C" width="29.4" height="3"/>
			</g>
			<g>
				<rect x="400.1" y="38.3" fill="#242D3C" width="29.4" height="3"/>
			</g>
			<g>
				<rect x="400.1" y="45.6" fill="#242D3C" width="14.7" height="3"/>
			</g>
		</g>
	</g>
</g>
<g>
	<rect x="540.8" y="228.8" fill="#FFFFFF" width="3.9" height="9.8"/>
	<rect x="555.2" y="228.8" fill="#FFFFFF" width="3.9" height="9.8"/>
	<path fill="#131A26" d="M572.1,206.4c0-2.8-2.3-5.1-5.1-5.1h-34.3c-2.8,0-5.1,2.3-5.1,5.1l0,0c0,2.8,2.3,5.1,5.1,5.1h34.3
		C569.9,211.4,572.1,209.1,572.1,206.4L572.1,206.4z"/>
	<path fill="#242D3C" d="M565.5,211.4v12.8c-0.3,2.6-2.4,4.6-5,4.6h-21.1c-1.4,0-2.7-0.6-3.6-1.5c-0.9-0.9-1.5-2.2-1.5-3.6v-12.3
		H565.5z"/>
	<path fill="#FF6D3B" d="M561.1,116.7c-0.2-0.1-0.5-0.2-0.7-0.2c0,0-0.1,0-0.1,0c-0.5-0.1-0.9-0.3-1.4-0.4
		c-4.5-1.6-7.6-5.8-7.7-10.8c0,0,0,0,0,0c0-0.3-0.1-0.6-0.4-0.9c-0.3-0.2-0.6-0.4-0.9-0.4c-0.3,0-0.6,0.1-0.9,0.4
		c-0.2,0.3-0.4,0.6-0.4,0.9c0,0,0,0,0,0c0,5-3.2,9.2-7.6,10.8c0,0,0,0,0,0c-0.5,0.2-1,0.3-1.5,0.4c0,0,0,0,0,0
		c-0.3,0.1-0.5,0.1-0.7,0.2c-14.3,4.7-24.6,18.1-24.6,33.9c0,19.7,16,35.7,35.7,35.7c19.7,0,35.7-16,35.7-35.7
		C585.6,134.8,575.3,121.4,561.1,116.7z"/>
	<path fill="#FF6D3B" d="M523,153.6c-1.6,0-2.9-1.3-2.9-2.9c0-12.9,8.2-24.3,20.5-28.4l0.2-0.1c1.5-0.5,3.2,0.3,3.7,1.8
		c0.5,1.5-0.3,3.2-1.8,3.7l-0.2,0.1c-9.9,3.2-16.5,12.4-16.5,22.8C525.9,152.3,524.6,153.6,523,153.6z"/>
	<g>
		<g>
			<rect x="539.3" y="184.8" fill="#F15424" width="21.1" height="16.5"/>
		</g>
	</g>
	<g>
		<g>
			<path fill="#FFFFFF" d="M554.1,176.6l-0.3-0.6c4.7-2.3,7.8-8.6,7.8-15.6c0-9.1-5.3-16.6-11.8-16.6c-6.5,0-11.8,7.4-11.8,16.6
				c0,7,3.1,13.3,7.8,15.6l-0.3,0.6c-4.9-2.5-8.2-9-8.2-16.2c0-9.5,5.6-17.2,12.4-17.2c6.9,0,12.4,7.7,12.4,17.2
				C562.3,167.6,559,174.1,554.1,176.6z"/>
			<g>
				<g>
					<rect x="545.3" y="175.4" fill="#FFFFFF" width="1.7" height="25.9"/>
					<rect x="552.9" y="175.4" fill="#FFFFFF" width="1.7" height="25.9"/>
				</g>
			</g>
		</g>
	</g>
</g>
<g>
	<path fill-rule="evenodd" clip-rule="evenodd" fill="#F2F2F2" d="M680.1,458c1.2,0,2.4,0.5,3.3,1.4c0.9,0.9,1.4,2.1,1.4,3.3l0,53.9
		c0,1.2-0.5,2.4-1.4,3.3c-0.9,0.9-2.1,1.4-3.3,1.4h-85.5c-1.2,0-2.4-0.5-3.3-1.4c-0.9-0.9-1.4-2.1-1.4-3.3l0-53.9
		c0-1.2,0.5-2.4,1.4-3.3c0.9-0.9,2.1-1.4,3.3-1.4H680.1z"/>
	<g>
		<path fill="#F15424" d="M666.2,490.9c0,5-4,9-9,9c-5,0-9-4-9-9c0-5,4-9,9-9C662.2,481.9,666.2,486,666.2,490.9z"/>
		<path fill="#242D3C" d="M675.2,490.9c0,5-4,9-9,9c-5,0-9-4-9-9c0-5,4-9,9-9C671.2,481.9,675.2,486,675.2,490.9z"/>
	</g>
	<path fill="#F15424" d="M615.3,495.9c0,0.7-0.6,1.3-1.3,1.3h-13.2c-0.7,0-1.3-0.6-1.3-1.3v-10c0-0.7,0.6-1.3,1.3-1.3H614
		c0.7,0,1.3,0.6,1.3,1.3V495.9z"/>
	<g>
		<g>
			<rect x="599.6" y="509" fill-rule="evenodd" clip-rule="evenodd" fill="#CCCBCA" width="15.7" height="1.9"/>
			<rect x="619.5" y="509" fill-rule="evenodd" clip-rule="evenodd" fill="#CCCBCA" width="15.7" height="1.9"/>
			<rect x="639.5" y="509" fill-rule="evenodd" clip-rule="evenodd" fill="#CCCBCA" width="15.8" height="1.9"/>
			<rect x="659.5" y="509" fill-rule="evenodd" clip-rule="evenodd" fill="#CCCBCA" width="15.8" height="1.9"/>
		</g>
	</g>
	<rect x="599.6" y="465.5" fill="#242D3C" width="35.7" height="4.4"/>
	<rect x="590" y="472" fill="#F15424" width="94.8" height="0.9"/>
</g>
<g>
	<rect x="82.6" y="416.4" fill="#E6E5E5" width="73.4" height="44"/>
	<polygon fill="#CCCBCA" points="156,460.2 119.4,438.3 119.3,438.2 82.6,460.2 82.6,460.4 83,460.4 119.3,438.6 155.7,460.4 
		156,460.4 	"/>
	<polygon fill="#242D3C" points="82.6,416.4 119.3,443.6 156.1,416.4 	"/>
</g>
<g>
	<path fill="#242D3C" d="M115.9,63.1c-6.6,0-12-5.4-12-12c0-6.6,5.4-12,12-12c6.6,0,12,5.4,12,12C127.9,57.7,122.5,63.1,115.9,63.1z
		 M115.9,41.1c-5.5,0-10,4.5-10,10c0,5.5,4.5,10,10,10c5.5,0,10.1-4.5,10.1-10C126,45.6,121.5,41.1,115.9,41.1z"/>
	<path fill="#242D3C" d="M157.2,106.7c0,22.8-18.5,41.3-41.3,41.3c-22.8,0-41.3-18.5-41.3-41.3c0-22.8,18.5-41.3,41.3-41.3
		C138.7,65.4,157.2,83.9,157.2,106.7z"/>
	<path fill="#FFFFFF" d="M152.4,106.7c0,20.2-16.3,36.5-36.5,36.5c-20.1,0-36.5-16.3-36.5-36.5c0-20.1,16.3-36.5,36.5-36.5
		C136.1,70.2,152.4,86.6,152.4,106.7z"/>
	<path fill="#CCCBCA" d="M125.5,89.8c0,5.3-4.3,9.6-9.6,9.6c-5.3,0-9.6-4.3-9.6-9.6c0-5.3,4.3-9.6,9.6-9.6
		C121.2,80.2,125.5,84.5,125.5,89.8z"/>
	<path fill="#CCCBCA" d="M115.9,118.1c-3,0-5.5,2.5-5.5,5.5c0,3,2.5,5.5,5.5,5.5c3,0,5.5-2.5,5.5-5.5
		C121.4,120.6,119,118.1,115.9,118.1z M115.9,127.8c-2.3,0-4.1-1.9-4.1-4.1c0-2.3,1.8-4.1,4.1-4.1c2.3,0,4.1,1.8,4.1,4.1
		C120,125.9,118.2,127.8,115.9,127.8z"/>
	<g>
		<g>
			<rect x="115.6" y="72.6" fill="#CCCBCA" width="0.7" height="3"/>
			<polygon fill="#CCCBCA" points="113,75.8 112.3,75.9 112,72.9 112.7,72.8 			"/>
			<polygon fill="#CCCBCA" points="109.8,76.3 109.1,76.4 108.5,73.4 109.2,73.3 			"/>
			<polygon fill="#CCCBCA" points="106.6,77.1 106,77.3 105,74.4 105.7,74.2 			"/>
			<polygon fill="#CCCBCA" points="103.6,78.2 103,78.5 101.7,75.7 102.4,75.4 			"/>
			<polygon fill="#CCCBCA" points="100.7,79.6 100.1,80 98.6,77.4 99.2,77 			"/>
			<polygon fill="#CCCBCA" points="97.9,81.4 97.4,81.8 95.6,79.3 96.2,78.9 			"/>
			<rect x="93.8" y="81" transform="matrix(0.7424 -0.67 0.67 0.7424 -31.035 84.3107)" fill="#CCCBCA" width="0.7" height="3"/>
			<polygon fill="#CCCBCA" points="93.1,85.7 92.6,86.2 90.3,84.2 90.8,83.6 			"/>
			
				<rect x="89.2" y="86.1" transform="matrix(0.589 -0.8082 0.8082 0.589 -33.9589 108.3736)" fill="#CCCBCA" width="0.7" height="3"/>
			<polygon fill="#CCCBCA" points="89.2,90.9 88.8,91.5 86.2,90 86.6,89.4 			"/>
			<polygon fill="#CCCBCA" points="87.7,93.8 87.4,94.4 84.6,93.2 84.9,92.5 			"/>
			<polygon fill="#CCCBCA" points="86.5,96.8 86.3,97.4 83.4,96.5 83.6,95.9 			"/>
			<polygon fill="#CCCBCA" points="85.6,99.9 85.5,100.6 82.5,100 82.6,99.3 			"/>
			<polygon fill="#CCCBCA" points="85.1,103.1 85,103.8 82,103.5 82,102.8 			"/>
			<rect x="81.8" y="106.4" fill="#CCCBCA" width="3" height="0.7"/>
			<polygon fill="#CCCBCA" points="85,109.6 85.1,110.3 82,110.6 82,109.9 			"/>
			<polygon fill="#CCCBCA" points="85.5,112.8 85.6,113.5 82.6,114.1 82.5,113.5 			"/>
			<polygon fill="#CCCBCA" points="86.3,116 86.5,116.6 83.6,117.6 83.4,116.9 			"/>
			<polygon fill="#CCCBCA" points="87.4,119 87.7,119.7 84.9,120.9 84.6,120.3 			"/>
			<polygon fill="#CCCBCA" points="88.8,122 89.2,122.5 86.6,124.1 86.2,123.5 			"/>
			<polygon fill="#CCCBCA" points="90.6,124.7 91,125.3 88.5,127 88.1,126.5 			"/>
			<polygon fill="#CCCBCA" points="92.6,127.3 93.1,127.8 90.8,129.8 90.3,129.3 			"/>
			
				<rect x="93.8" y="129.4" transform="matrix(-0.7417 -0.6708 0.6708 -0.7417 76.107 291.1559)" fill="#CCCBCA" width="0.7" height="3"/>
			<polygon fill="#CCCBCA" points="97.4,131.6 97.9,132 96.2,134.5 95.6,134.1 			"/>
			<polygon fill="#CCCBCA" points="100.1,133.4 100.7,133.8 99.2,136.4 98.6,136.1 			"/>
			<polygon fill="#CCCBCA" points="103,134.9 103.6,135.2 102.4,138 101.7,137.7 			"/>
			<polygon fill="#CCCBCA" points="106,136.2 106.6,136.4 105.7,139.2 105,139 			"/>
			<polygon fill="#CCCBCA" points="109.1,137 109.8,137.2 109.2,140.1 108.5,140 			"/>
			<polygon fill="#CCCBCA" points="112.3,137.6 113,137.6 112.7,140.7 112,140.6 			"/>
			<rect x="115.6" y="137.8" fill="#CCCBCA" width="0.7" height="3"/>
			<polygon fill="#CCCBCA" points="118.8,137.6 119.5,137.6 119.8,140.6 119.1,140.7 			"/>
			<polygon fill="#CCCBCA" points="122,137.2 122.7,137 123.3,140 122.7,140.1 			"/>
			<polygon fill="#CCCBCA" points="125.2,136.4 125.8,136.2 126.8,139 126.1,139.2 			"/>
			<polygon fill="#CCCBCA" points="128.2,135.2 128.9,134.9 130.1,137.7 129.5,138 			"/>
			<polygon fill="#CCCBCA" points="131.1,133.8 131.7,133.4 133.3,136.1 132.7,136.4 			"/>
			<polygon fill="#CCCBCA" points="133.9,132 134.5,131.6 136.2,134.1 135.7,134.5 			"/>
			
				<rect x="137.4" y="129.4" transform="matrix(-0.7429 0.6694 -0.6694 -0.7429 327.6566 136.0078)" fill="#CCCBCA" width="0.7" height="3"/>
			<polygon fill="#CCCBCA" points="138.8,127.8 139.2,127.3 141.5,129.3 141,129.8 			"/>
			<polygon fill="#CCCBCA" points="140.8,125.3 141.2,124.7 143.7,126.5 143.3,127 			"/>
			<polygon fill="#CCCBCA" points="142.6,122.5 143,122 145.6,123.5 145.3,124.1 			"/>
			<polygon fill="#CCCBCA" points="144.2,119.7 144.4,119 147.2,120.3 146.9,120.9 			"/>
			<polygon fill="#CCCBCA" points="145.3,116.6 145.6,116 148.4,116.9 148.2,117.6 			"/>
			<polygon fill="#CCCBCA" points="146.2,113.5 146.4,112.8 149.3,113.5 149.2,114.1 			"/>
			<polygon fill="#CCCBCA" points="146.8,110.3 146.8,109.6 149.8,109.9 149.8,110.6 			"/>
			<rect x="147" y="106.4" fill="#CCCBCA" width="3" height="0.7"/>
			<polygon fill="#CCCBCA" points="146.8,103.8 146.8,103.1 149.8,102.8 149.8,103.5 			"/>
			<polygon fill="#CCCBCA" points="146.4,100.6 146.2,99.9 149.2,99.3 149.3,100 			"/>
			<polygon fill="#CCCBCA" points="145.6,97.4 145.3,96.8 148.2,95.9 148.4,96.5 			"/>
			<polygon fill="#CCCBCA" points="144.4,94.4 144.2,93.8 146.9,92.5 147.2,93.2 			"/>
			<polygon fill="#CCCBCA" points="143,91.5 142.6,90.9 145.3,89.4 145.6,90 			"/>
			<polygon fill="#CCCBCA" points="141.2,88.7 140.8,88.2 143.3,86.4 143.7,87 			"/>
			<polygon fill="#CCCBCA" points="139.2,86.2 138.8,85.7 141,83.6 141.5,84.2 			"/>
			
				<rect x="137.4" y="81" transform="matrix(0.7436 0.6686 -0.6686 0.7436 90.4699 -70.9181)" fill="#CCCBCA" width="0.7" height="3"/>
			<polygon fill="#CCCBCA" points="134.5,81.8 133.9,81.4 135.7,78.9 136.2,79.3 			"/>
			<polygon fill="#CCCBCA" points="131.7,80 131.2,79.6 132.7,77 133.3,77.4 			"/>
			<polygon fill="#CCCBCA" points="128.9,78.5 128.2,78.2 129.5,75.4 130.1,75.7 			"/>
			<polygon fill="#CCCBCA" points="125.8,77.3 125.2,77.1 126.1,74.2 126.8,74.4 			"/>
			<polygon fill="#CCCBCA" points="122.7,76.4 122,76.3 122.7,73.3 123.3,73.4 			"/>
			<polygon fill="#CCCBCA" points="119.5,75.9 118.8,75.8 119.1,72.8 119.8,72.9 			"/>
		</g>
	</g>
	<polygon fill="#F15424" points="109.6,110.3 109,109 146.9,92.2 147.5,93.4 	"/>
	<path fill="#242D3C" d="M119.5,106.7c0,2-1.6,3.6-3.6,3.6c-2,0-3.6-1.6-3.6-3.6c0-2,1.6-3.6,3.6-3.6
		C117.9,103.1,119.5,104.7,119.5,106.7z"/>
	<path fill="#FFFFFF" d="M117.9,106.7c0,1.1-0.9,2-2,2c-1.1,0-2-0.9-2-2c0-1.1,0.9-2,2-2C117,104.7,117.9,105.6,117.9,106.7z"/>
	<rect x="112.5" y="58.7" fill="#242D3C" width="6.9" height="6.9"/>
	<rect x="110.4" y="53.2" fill="#242D3C" width="11" height="5.5"/>
	<g>
		<g>
			<polygon fill="#242D3C" points="142.9,75.5 147.2,79.8 149.2,77.8 144.8,73.5 			"/>
			<polygon fill="#242D3C" points="143.9,72.6 150,78.7 153.9,74.8 147.8,68.7 			"/>
			<polygon fill="#242D3C" points="147.4,68.3 154.4,75.2 155.4,74.2 148.5,67.2 			"/>
		</g>
		<g>
			<polygon fill="#242D3C" points="89,75.5 84.6,79.8 82.7,77.8 87,73.5 			"/>
			<polygon fill="#242D3C" points="87.9,72.6 81.8,78.7 77.9,74.8 84,68.7 			"/>
			<polygon fill="#242D3C" points="84.4,68.3 77.5,75.2 76.4,74.2 83.3,67.2 			"/>
		</g>
	</g>
</g>
<g>
	<path fill="#E6E5E5" d="M717.6,166.4v48.9h-40.9c-4.4,0-8-3.6-8-8v-40.9H717.6z"/>
	<circle fill="#F15424" cx="693.2" cy="172.1" r="2.8"/>
	<g>
		<g>
			<g>
				<rect x="677.5" y="184.4" fill="#242D3C" width="31.3" height="2.1"/>
			</g>
			<g>
				<rect x="677.5" y="189.7" fill="#242D3C" width="31.3" height="2.1"/>
			</g>
			<g>
				<rect x="677.5" y="195" fill="#242D3C" width="15.7" height="2.1"/>
			</g>
		</g>
	</g>
	<path fill="#242D3C" d="M684.6,207.3c0,4.4-3.6,8-8,8h40.9c4.4,0,8-3.6,8-8L684.6,207.3z"/>
</g>
</svg>
